<svg xmlns="http://www.w3.org/2000/svg" xmlns:xlink="http://www.w3.org/1999/xlink" width="146" height="212"><defs><path id="a" d="M0 0h198v223H0z"/><path id="c" d="M.06.33h123.53V98.5H.06z"/></defs><g fill="none" fill-rule="evenodd" transform="translate(-27 -3)"><mask id="b" fill="#fff"><use xlink:href="#a"/></mask><g mask="url(#b)"><path fill="#F1F0ED" d="M121.1 150l-5 36.59-.6 4.4h-9.86l-.42-4.4-3.45-36.6h19.34"/><path fill="#696763" d="M121.1 150l-.49-.07-5 36.59-.55 3.98h-8.97l-.38-3.96-3.4-36.04h18.8v-.5l-.5-.07.5.07v-.5h-19.9l3.5 37.13.47 4.87h10.75l.66-4.85 5.09-37.15h-.57v.5"/><path fill="#1B1C1A" d="M116.1 186.59l-.6 4.4h-9.86l-.42-4.4h10.88"/><path fill="#696763" d="M116.1 186.59l-.5-.07-.54 3.98h-8.97l-.32-3.41h10.33v-.5l-.5-.07.5.07v-.5h-11.43l.51 5.4h10.75l.74-5.4h-.57v.5"/><path fill="#F1F0ED" d="M78.34 150l-3.45 36.59-.42 4.4H64.6l-.6-4.4-5.01-36.6h19.34"/><path fill="#696763" d="M78.34 150l-.5-.05-3.45 36.59-.38 3.96h-8.97l-.54-3.98-4.93-36.02h18.77v-.5l-.5-.05.5.05v-.5H58.42l5.1 37.16.65 4.84h10.75l.46-4.87 3.5-37.13h-.54v.5"/><path fill="#1B1C1A" d="M74.89 186.59l-.42 4.4H64.6l-.6-4.4h10.88"/><path fill="#696763" d="M74.89 186.59l-.5-.05-.38 3.96h-8.97l-.46-3.41h10.3v-.5l-.5-.05.5.05v-.5H63.44l.74 5.4h10.75l.52-5.4h-.55v.5"/><path fill="#4C86B9" d="M170.6 91.03s-9.43 5.59-14.93 16.15c-4.13 7.92-16.73 6.49-22.77 5.28a40.92 40.92 0 0 1-3.24-.76l-.06-.02s1.33-31.32 41-20.65"/><path fill="#1E3A4F" d="M170.6 91.03l-.26-.43a44.7 44.7 0 0 0-15.12 16.35 10.05 10.05 0 0 1-5.58 4.72 22.34 22.34 0 0 1-7.86 1.24 46 46 0 0 1-8.78-.94 40.46 40.46 0 0 1-3.2-.75l-.14.48.15-.48-.06-.02-.15.48.5.02.01-.24c.1-1.21.72-6.79 4.19-12.01a21.32 21.32 0 0 1 7.6-7.02c3.45-1.88 7.9-3.12 13.7-3.12 4.21 0 9.13.65 14.87 2.2l.13-.48-.26-.43.26.43.13-.49a58.58 58.58 0 0 0-15.13-2.23c-6.33 0-11.19 1.45-14.88 3.64a23.54 23.54 0 0 0-9.96 12.32 26.54 26.54 0 0 0-1.66 7.38l-.02.38.42.14h.01a47.1 47.1 0 0 0 12.27 1.74c2.79 0 5.67-.33 8.22-1.3a11.06 11.06 0 0 0 6.11-5.2c2.71-5.21 6.4-9.2 9.42-11.9a44.5 44.5 0 0 1 3.8-3.04 32.49 32.49 0 0 1 1.42-.95l.1-.06 1.02-.6-1.14-.32-.13.49"/><path fill="#356D97" d="M170.6 91.03c-10.7-1.26-19.26.37-25.68 7.14-5.53 5.82-15.32 13.5-15.32 13.5s1.33-31.31 41-20.64"/><path fill="#1E3A4F" d="M170.6 91.03l.06-.5a53.72 53.72 0 0 0-6.27-.4c-7.94 0-14.6 2.18-19.84 7.7a129.64 129.64 0 0 1-9.69 8.9 235.16 235.16 0 0 1-5.57 4.55l.3.4.5.02.02-.24c.1-1.21.72-6.79 4.19-12.01a21.32 21.32 0 0 1 7.6-7.02c3.45-1.88 7.9-3.12 13.7-3.12 4.21 0 9.13.66 14.87 2.2l.13-.48.06-.5-.06.5.13-.49a58.58 58.58 0 0 0-15.13-2.23c-6.33 0-11.19 1.45-14.88 3.64a23.54 23.54 0 0 0-9.96 12.32 26.54 26.54 0 0 0-1.66 7.38l-.05 1.1.86-.68s9.8-7.69 15.37-13.56c5.02-5.29 11.34-7.37 19.1-7.37 1.97 0 4.02.13 6.16.38l.19-.98-.13.49"/><path fill="#336B95" d="M170.6 91.03s-9.43 5.59-14.93 16.15c-4.13 7.92-16.73 6.49-22.77 5.28a40.92 40.92 0 0 1-3.24-.76l-.06-.02s13.31-1.14 22.32-10.57c9.62-10.08 18.68-10.08 18.68-10.08"/><path fill="#1E3A4F" d="M170.6 91.03l-.26-.43a44.7 44.7 0 0 0-15.12 16.35 10.05 10.05 0 0 1-5.58 4.72 22.34 22.34 0 0 1-7.86 1.24 46 46 0 0 1-8.78-.94 40.46 40.46 0 0 1-3.2-.75l-.14.48.15-.48-.06-.02-.15.48.04.5c.05-.02 13.46-1.14 22.64-10.73 4.76-4.98 9.36-7.46 12.76-8.7a22.09 22.09 0 0 1 5.19-1.2l.28-.02h.09v-.5l-.26-.43.26.43v-.5c-.09 0-9.3.03-19.04 10.23-4.43 4.64-9.93 7.25-14.34 8.7a42.14 42.14 0 0 1-5.5 1.4 32.56 32.56 0 0 1-1.6.25l-.42.05-.14.02-2.45.2 2.4.8c.3.08 1.5.41 3.29.77 2.31.46 5.57.96 8.98.96 2.79 0 5.67-.33 8.22-1.3a11.06 11.06 0 0 0 6.11-5.2c2.71-5.21 6.4-9.2 9.42-11.9a44.5 44.5 0 0 1 3.8-3.04 32.49 32.49 0 0 1 1.42-.95l.1-.06 1.57-.93h-1.82v.5"/><path fill="#F1F0ED" d="M122.5 67.67s12 .66 12.67-8c.66-8.67 2.33-22-8.67-13.34-11 8.67-4 21.34-4 21.34"/><path fill="#696763" d="M122.5 67.67l-.03.5h.62c1.24 0 4.16-.11 6.91-1.22a9.79 9.79 0 0 0 3.75-2.53 7.85 7.85 0 0 0 1.92-4.71c.2-2.65.5-5.75.5-8.54 0-2.13-.17-4.08-.72-5.58a4.42 4.42 0 0 0-1.2-1.84 3.02 3.02 0 0 0-2.03-.73c-1.56.01-3.47.91-6.03 2.92-4.97 3.9-6.4 8.68-6.39 12.74.01 5.16 2.24 9.19 2.26 9.23l.14.24.27.02.03-.5.44-.24-.02-.04a20.11 20.11 0 0 1-2.12-8.71c.01-3.83 1.3-8.23 6.01-11.95 2.47-1.96 4.27-2.72 5.41-2.71.59 0 1.01.17 1.38.48.55.47.96 1.34 1.22 2.5.25 1.17.35 2.61.35 4.17 0 2.72-.3 5.8-.5 8.46a6.84 6.84 0 0 1-1.67 4.13c-1.35 1.54-3.38 2.4-5.3 2.88-1.93.47-3.74.54-4.62.54h-.41l-.14-.01-.03.5.44-.25-.44.25"/><path fill="#DEDBD6" d="M121.9 63.43s8.07 2 9.87-4.14c1.8-6.14 0-9.66 0-9.66s-9.99 1.26-9.86 13.8"/><path fill="#696763" d="M121.9 63.43l-.11.48c.02.01 1.31.33 3 .33 1.3 0 2.85-.18 4.25-.88a6.14 6.14 0 0 0 3.2-3.93c.62-2.1.83-3.9.83-5.37 0-2.96-.83-4.6-.86-4.65l-.16-.32-.34.05c-.05 0-2.6.33-5.17 2.25-2.58 1.93-5.14 5.5-5.13 11.8v.64l.38.08.12-.48h.5v-.23c0-6.03 2.38-9.23 4.73-11a11.52 11.52 0 0 1 3.25-1.7 10.19 10.19 0 0 1 1.35-.36h.07l.02-.01-.06-.5-.45.23v.01a10 10 0 0 1 .75 4.19c0 1.38-.2 3.09-.78 5.09a5.13 5.13 0 0 1-2.7 3.31c-1.2.6-2.59.78-3.8.78a13.42 13.42 0 0 1-2.56-.25l-.15-.03-.05-.02-.12.49h.5-.5"/><path fill="#F1F0ED" d="M50.16 67.67s-12 .66-12.67-8c-.67-8.67-2.33-22 8.67-13.34s4 21.34 4 21.34"/><path fill="#696763" d="M50.16 67.67l-.03-.5h-.56c-1.17.01-4-.12-6.54-1.15a8.8 8.8 0 0 1-3.37-2.26 6.84 6.84 0 0 1-1.67-4.13c-.2-2.66-.5-5.74-.5-8.46 0-2.07.17-3.95.66-5.23.24-.64.54-1.12.9-1.44.38-.3.8-.48 1.39-.48 1.14-.01 2.93.75 5.4 2.7 4.72 3.73 6 8.13 6.01 11.96 0 2.43-.53 4.63-1.07 6.21a19.94 19.94 0 0 1-.74 1.87l-.23.5-.07.13-.02.04.44.24-.03-.5.03.5.43.24c.02-.04 2.26-4.07 2.26-9.23.01-4.06-1.42-8.84-6.38-12.74-2.56-2-4.47-2.9-6.03-2.92a3 3 0 0 0-2.03.73 5.43 5.43 0 0 0-1.55 3.05 21.12 21.12 0 0 0-.37 4.37c0 2.8.3 5.9.5 8.54a7.85 7.85 0 0 0 1.92 4.7c1.56 1.78 3.78 2.7 5.81 3.2 2.04.5 3.92.57 4.85.57l.61-.01.28-.02.13-.24-.43-.24"/><path fill="#DEDBD6" d="M50.75 63.43s-8.06 2-9.86-4.14c-1.8-6.14 0-9.66 0-9.66s9.98 1.26 9.86 13.8"/><path fill="#696763" d="M50.75 63.43l-.12-.49-.05.02a13 13 0 0 1-2.72.28c-1.2 0-2.6-.18-3.8-.78a5.13 5.13 0 0 1-2.7-3.31c-.58-2-.77-3.71-.77-5.1a12.23 12.23 0 0 1 .64-3.94l.08-.2.02-.04-.44-.24-.06.5h.01c.24.04 2.62.43 4.9 2.23 2.28 1.82 4.5 5 4.51 10.84v.22h.5l-.12-.48.12.49h.5v-.23c.01-6.3-2.55-9.88-5.13-11.8-2.58-1.93-5.12-2.25-5.17-2.26l-.35-.05-.16.32c-.02.05-.85 1.69-.85 4.65 0 1.47.2 3.28.82 5.37a6.15 6.15 0 0 0 3.21 3.93c1.4.7 2.94.88 4.24.88 1.7 0 2.99-.32 3.01-.33l.38-.09v-.39h-.5"/><g transform="translate(27 86)"><mask id="d" fill="#fff"><use xlink:href="#c"/></mask><path fill="#F1F0ED" d="M123.1 59.67C123.1 84.8 95.64 98 61.8 98 27.94 98 .5 84.8.5 59.67S4.67.83 61.8.83c44.13 0 57.3 23.5 60.44 45.87.62 4.43.85 8.82.85 12.97" mask="url(#d)"/><path fill="#696763" d="M123.1 59.67h-.5c0 6.2-1.7 11.63-4.74 16.32-4.58 7.04-12.25 12.42-21.97 16.04-9.7 3.62-21.45 5.47-34.1 5.47-16.86 0-32.1-3.3-43.09-9.67-5.49-3.2-9.91-7.15-12.96-11.84A29.37 29.37 0 0 1 1 59.67c0-12.54 1.05-27.14 9.13-38.55 4.04-5.71 9.83-10.64 18.18-14.17 8.35-3.52 19.25-5.62 33.49-5.62 26.33.01 41.46 8.38 50.07 19.8 8.62 11.43 10.72 26.03 10.72 38.54h1c0-12.61-2.1-27.43-10.92-39.14S88.33.33 61.8.33c-14.33 0-25.37 2.12-33.88 5.7-12.75 5.38-19.78 14.1-23.55 23.8C.58 39.53 0 50.23 0 59.67a30.3 30.3 0 0 0 4.9 16.86c4.73 7.28 12.6 12.77 22.45 16.44 9.86 3.67 21.7 5.53 34.45 5.53 16.99 0 32.39-3.3 43.59-9.8 5.6-3.26 10.15-7.32 13.3-12.16a30.37 30.37 0 0 0 4.9-16.87h-.5" mask="url(#d)"/></g><path fill="#F1F0ED" d="M88.49 138.65a37.1 37.1 0 0 1-37.9-36.08l-.82-34.05a37.1 37.1 0 0 1 36.08-37.9 37.1 37.1 0 0 1 37.9 36.07l.81 34.06a37.1 37.1 0 0 1-36.07 37.9"/><path fill="#696763" d="M88.49 138.65v-.5h-.01l-.91.01a36.6 36.6 0 0 1-36.48-35.6l-.82-34.05a39.25 39.25 0 0 1-.01-.9 36.61 36.61 0 0 1 36.5-36.5c19.67 0 36 15.83 36.49 35.6l.81 34.05.01.9c0 19.67-15.83 36-35.6 36.49l.02.5v-.5.5l.01.5a37.61 37.61 0 0 0 36.56-38.41l-.81-34.06a37.61 37.61 0 0 0-38.42-36.56 37.61 37.61 0 0 0-36.56 38.41l.82 34.06a37.61 37.61 0 0 0 38.41 36.56l-.01-.5v.5h.01l-.01-.5"/><path fill="#75706C" d="M92.62 124.12l.01-.02c.06-.11.38-.75 1-1.33a3.82 3.82 0 0 1 2.7-1.1c.72 0 1.58.18 2.61.7a.5.5 0 0 0 .45-.9 6.86 6.86 0 0 0-3.07-.8 4.82 4.82 0 0 0-3.53 1.52c-.74.75-1.06 1.49-1.08 1.52a.5.5 0 1 0 .91.41"/><path fill="#4C86B9" d="M80.84 75.6c-8.64 1.82-30.83 4.23-43.67.57l.15-.57c1.8-6.38 19.48-64.08 68.17-44.31 11.93 21.54-7 40.59-24.65 44.3"/><path fill="#1E3A4F" d="M80.84 75.6l-.1-.5c-5.3 1.13-15.83 2.48-26.08 2.48-6.32 0-12.54-.52-17.36-1.9l-.13.49.48.12.15-.56-.48-.13.48.13a96.43 96.43 0 0 1 12.13-26.1c3.85-5.68 8.7-11.17 14.7-15.24 6-4.06 13.13-6.7 21.58-6.71 5.73 0 12.08 1.22 19.09 4.07l.19-.46-.44.24a27.37 27.37 0 0 1 3.67 13.36c0 7.6-3.57 14.42-8.87 19.73A39.27 39.27 0 0 1 80.73 75.1l.21.98a40.3 40.3 0 0 0 19.62-10.77c5.44-5.44 9.16-12.51 9.16-20.43a28.4 28.4 0 0 0-3.8-13.85l-.08-.15-.16-.07c-7.12-2.89-13.6-4.14-19.47-4.14-8.66 0-16 2.72-22.14 6.88-9.2 6.25-15.7 15.7-20.07 24.09a98.86 98.86 0 0 0-7.16 17.81 27.49 27.49 0 0 0-.16.58l-.12.47.47.14c4.97 1.41 11.26 1.92 17.63 1.93 10.34 0 20.9-1.36 26.28-2.5l-.1-.48"/><path fill="#356D97" d="M105.49 31.29c-8.31 3.5-34.18 19.82-34.83 20.38-16.88 14.55-26.6 22.07-33.34 23.93 1.8-6.38 19.48-64.08 68.17-44.31"/><path fill="#1E3A4F" d="M105.49 31.29l-.2-.46c-4.22 1.78-12.75 6.73-20.35 11.32a701.72 701.72 0 0 0-10 6.17 379.14 379.14 0 0 0-3.21 2.04 92.26 92.26 0 0 0-1.22.8l-.18.13c-8.43 7.27-15.08 12.78-20.44 16.7-5.36 3.91-9.44 6.23-12.7 7.13l.13.48.48.13a96.43 96.43 0 0 1 12.13-26.1c3.85-5.68 8.7-11.17 14.7-15.24 6-4.06 13.13-6.7 21.58-6.71 5.73 0 12.08 1.22 19.09 4.07l.19-.46-.2-.46.2.46.19-.47c-7.12-2.89-13.6-4.14-19.47-4.14-8.66 0-16 2.72-22.14 6.88-9.2 6.25-15.7 15.7-20.07 24.09a98.86 98.86 0 0 0-7.16 17.81l-.24.85.85-.23c3.48-.96 7.62-3.34 13.03-7.29 5.4-3.94 12.06-9.47 20.5-16.74v-.02.02-.02.02l.45-.3a561.5 561.5 0 0 1 15.63-9.7c7.15-4.3 14.82-8.7 18.62-10.3l1.12-.47-1.12-.46-.2.47"/><path fill="#336B95" d="M119.17 66.17c-3.14 6.09-10.75 10.72-12.6 11.9-2.95 1.88-15.65 6.63-26.16 7.57-1.15.1-1.64-1.4-.67-2.02 15.7-10.03 36.84-32.3 25.75-52.33 1.04.42 2.1.88 3.18 1.38 22.5 12.5 14.47 25.8 10.5 33.5"/><path fill="#1E3A4F" d="M119.17 66.17l-.45-.23c-1.52 2.94-4.16 5.6-6.65 7.63-2.5 2.05-4.84 3.5-5.77 4.08-.68.44-2.02 1.09-3.78 1.8-5.26 2.16-14.36 5-22.16 5.7h-.06a.54.54 0 0 1-.42-.18.65.65 0 0 1-.16-.43.57.57 0 0 1 .28-.5 81.71 81.71 0 0 0 19.3-17.25c5.67-7.12 9.78-15.32 9.78-23.69 0-4.03-.96-8.1-3.16-12.06l-.43.25-.19.46c1.03.42 2.08.87 3.16 1.37l.2-.45-.24.43c5.86 3.25 9.6 6.54 11.86 9.73a15.56 15.56 0 0 1 3.09 9.23c0 5.34-2.75 10.2-4.65 13.88l.9.46c1.87-3.66 4.74-8.66 4.74-14.34 0-3.13-.88-6.46-3.26-9.8-2.39-3.36-6.25-6.73-12.2-10.03v-.01h-.02a69.6 69.6 0 0 0-3.2-1.4l-1.31-.52.68 1.23a23.55 23.55 0 0 1 3.03 11.57c0 8.03-3.98 16.05-9.56 23.07a80.7 80.7 0 0 1-19.05 17.02 1.57 1.57 0 0 0-.75 1.35 1.56 1.56 0 0 0 1.58 1.6h.15a78.82 78.82 0 0 0 16.02-3.45 85.44 85.44 0 0 0 6.43-2.31 27.75 27.75 0 0 0 3.94-1.88c.92-.6 3.31-2.06 5.86-4.15 2.56-2.1 5.29-4.81 6.91-7.95l-.44-.23"/><path fill="#E7A62D" d="M87.17 58.35c-7.33 5.66-17.67 0-17.67 0l.6-4.85s10 2.27 15.29-3.27l1.78 8.12"/><path fill="#5D4824" d="M87.17 58.35l-.3-.4c-2.35 1.81-5 2.42-7.54 2.42s-4.95-.61-6.72-1.23a24.28 24.28 0 0 1-2.1-.85 17.69 17.69 0 0 1-.58-.27l-.15-.08-.04-.02-.24.43.5.07.6-4.85-.5-.07-.11.5c.02 0 2.08.46 4.85.46 3.37 0 7.85-.68 10.9-3.88l-.35-.34-.5.1 1.79 8.12.49-.1-.3-.4.3.4.48-.11-1.98-9.04-.65.68c-2.74 2.89-6.93 3.58-10.18 3.57-1.33 0-2.5-.1-3.32-.22a20.85 20.85 0 0 1-1.23-.2l-.08-.02-.54-.13-.71 5.74.3.16c.03.02 4.67 2.57 10.07 2.58a13 13 0 0 0 8.14-2.62l.25-.2-.06-.3-.5.1"/><path fill="#C68C31" d="M85.39 50.23c-5.28 5.55-15.3 3.28-15.3 3.28v-.01l1.03-8.34s6.43 2.07 12.65-2.28l1.62 7.35"/><path fill="#5D4824" d="M85.39 50.23l-.37-.34c-2.74 2.89-6.93 3.58-10.18 3.58-1.33 0-2.5-.12-3.32-.23a20.85 20.85 0 0 1-1.23-.2l-.08-.02-.11.48h.5-.5l.5.06 1.01-8.34-.5-.06-.15.47c.04.01 1.61.52 3.97.52 2.48 0 5.84-.57 9.12-2.87l-.28-.4v.5-.5l-.48.1 1.6 7.36.5-.1-.36-.35.36.34.49-.1-1.7-7.76h-.57l-.13.1a14.76 14.76 0 0 1-11.22 2.44 10.45 10.45 0 0 1-.74-.16l-.2-.05-.05-.02-.58-.19-1.1 8.97v.44l.4.1c.02 0 2.08.46 4.85.46 3.38 0 7.85-.68 10.9-3.88l.2-.2-.06-.25-.5.1"/><path fill="#E7A62D" d="M83.78 42.88h-.01c-6.22 4.34-12.65 2.27-12.65 2.27l.84-6.82s4.96 2.34 10.42-1.82l1.4 6.37"/><path fill="#5D4824" d="M83.78 42.88v-.5h-.17l-.13.08a14.76 14.76 0 0 1-11.22 2.45 10.45 10.45 0 0 1-.74-.16l-.2-.05-.05-.02-.15.48.5.06.83-6.83-.5-.06-.2.45c.04.02 1.5.7 3.72.7 1.97 0 4.55-.55 7.21-2.58l-.3-.4-.5.11 1.4 6.37.5-.1v-.5.5l.48-.11-1.56-7.14-.63.48a10.76 10.76 0 0 1-6.6 2.37 9.45 9.45 0 0 1-2.42-.31 7.45 7.45 0 0 1-.67-.21l-.16-.07-.04-.01h-.01l-.63-.3-.97 7.92.4.13a15.76 15.76 0 0 0 13.09-2.35l-.3-.4v.5h.64l-.14-.61-.48.1"/><path fill="#C68C31" d="M79.56 23.68c-3.27 1.82-5.95 1.17-5.95 1.17l2.23-18.17 3.72 17"/><path fill="#5D4824" d="M79.56 23.68l-.25-.44a9.18 9.18 0 0 1-5.3 1.17 4.12 4.12 0 0 1-.23-.04h-.05v-.01l-.12.49.5.06 1.87-15.25 3.09 14.12.49-.1-.25-.44.25.44.48-.11L75.7 3.7l-2.64 21.52.43.1c.03 0 .53.13 1.36.13 1.16 0 2.96-.24 4.95-1.35l.33-.18-.08-.36-.5.1"/><path fill="#E7A62D" d="M80.84 29.51l-1.26 1.01c-2.82 2.38-5.37 2.45-6.93 2.14l.96-7.81s2.68.64 5.95-1.18l1.28 5.84"/><path fill="#5D4824" d="M80.84 29.51l-.32-.39-1.26 1.02c-2.04 1.72-3.87 2.15-5.27 2.16-.47 0-.89-.05-1.25-.13l-.1.5.5.06.96-7.82-.5-.07-.11.5c.03 0 .53.12 1.36.12 1.16 0 2.96-.24 4.95-1.35l-.24-.43-.5.1 1.29 5.84.49-.1-.32-.4.32.4.48-.11-1.42-6.5-.59.33a9.18 9.18 0 0 1-5.3 1.17 4.12 4.12 0 0 1-.23-.04h-.05v-.01l-.55-.13-1.09 8.84.46.09a7.39 7.39 0 0 0 1.44.14c1.61 0 3.71-.53 5.9-2.4l-.31-.37.3.39 1.51-1.2-.07-.31-.48.1"/><path fill="#C68C31" d="M82.38 36.5c-5.46 4.17-10.42 1.83-10.42 1.83l.69-5.66c1.56.3 4.1.24 6.93-2.14l1.26-1.02 1.54 7"/><path fill="#5D4824" d="M82.38 36.5l-.3-.4a10.76 10.76 0 0 1-6.61 2.38 9.45 9.45 0 0 1-2.42-.31 7.45 7.45 0 0 1-.67-.21l-.16-.07-.04-.01h-.01l-.21.44.5.07.68-5.66-.5-.06-.1.49a7.39 7.39 0 0 0 1.45.14c1.61 0 3.71-.53 5.9-2.4l-.31-.37.3.39.64-.51 1.37 6.2.49-.1-.3-.4.3.4.48-.11-1.7-7.78-1.9 1.52c-2.04 1.72-3.87 2.15-5.27 2.16-.47 0-.89-.05-1.25-.13l-.52-.1-.8 6.55.32.16c.05.02 1.5.7 3.73.7 1.97 0 4.55-.55 7.21-2.58l.25-.2-.07-.3-.48.1"/><path fill="#E9EAE8" d="M113.5 45.23a3.17 3.17 0 1 1 0-6.34 3.17 3.17 0 0 1 0 6.34"/><path fill="#F1F0ED" d="M118.5 50.62a1.8 1.8 0 1 1-3.58 0 1.8 1.8 0 0 1 3.58 0"/><path fill="#C24546" d="M91 101.23c0 .54-1.51 2.5-3.36 2.5-1.86 0-3.36-1.96-3.36-2.5 0-.55 1.5-.99 3.36-.99 1.85 0 3.35.44 3.35.99"/><path fill="#A14342" d="M91 101.23h-.38c0 .04-.09.26-.25.48a4.4 4.4 0 0 1-1.12 1.1c-.48.32-1.04.54-1.61.54-.8 0-1.56-.42-2.12-.94a4.14 4.14 0 0 1-.66-.77 1.96 1.96 0 0 1-.17-.3l-.03-.09v-.02h-.07l.06.02v-.02h-.06l.06.02c.02-.03.1-.11.27-.2.5-.24 1.54-.44 2.72-.43.9 0 1.7.1 2.26.27.28.08.5.18.61.26l.1.1h.01l.05-.02h-.05v.02l.05-.02h-.05.75a.72.72 0 0 0-.14-.41c-.14-.2-.33-.33-.56-.44a7.6 7.6 0 0 0-3.03-.51c-.96 0-1.83.11-2.48.3-.33.1-.6.21-.83.37a.96.96 0 0 0-.29.28.73.73 0 0 0-.14.4c0 .16.05.29.1.42.2.45.64 1.03 1.27 1.54.62.5 1.44.92 2.37.92a4 4 0 0 0 2.62-1.14 4.89 4.89 0 0 0 1.01-1.32c.05-.14.1-.26.1-.41h-.38"/><path fill="#F1F0ED" d="M120.25 211.83c0 1.75-14.08 3.17-31.45 3.17s-31.46-1.42-31.46-3.17 14.08-3.16 31.46-3.16 31.45 1.41 31.45 3.16"/><path fill="#65BEC0" d="M111.44 102.71a2.9 2.9 0 0 1-5.8 0c0-1.6 2.9-6.1 2.9-6.1s2.9 4.5 2.9 6.1"/><path fill="#2A5A4F" d="M111.44 102.71h-.5a2.4 2.4 0 0 1-2.4 2.4 2.4 2.4 0 0 1-2.4-2.4c0-.26.15-.82.41-1.43a27.26 27.26 0 0 1 2.14-3.99l.27-.41-.42-.28-.43.28.45.71c.4.67 1.01 1.7 1.51 2.7.25.51.47 1 .63 1.44.15.42.24.8.23.98h1c0-.54-.2-1.14-.49-1.82-.84-2.01-2.48-4.54-2.48-4.56l-.43-.65-.42.65a44.7 44.7 0 0 0-1.46 2.49 23.02 23.02 0 0 0-1.02 2.07 5.21 5.21 0 0 0-.5 1.82 3.4 3.4 0 0 0 6.8 0h-.5"/><path fill="#1B1C1A" d="M69.5 95.53a4.58 4.58 0 0 1-4.57-4.57V88.7a4.58 4.58 0 0 1 4.57-4.57 4.58 4.58 0 0 1 4.57 4.57v2.26a4.58 4.58 0 0 1-4.57 4.57m35.57 0a4.58 4.58 0 0 1-4.57-4.57V88.7a4.58 4.58 0 0 1 4.57-4.57 4.58 4.58 0 0 1 4.57 4.57v2.26a4.58 4.58 0 0 1-4.57 4.57"/><path fill="#FFFFFE" d="M108.07 88.33a1.5 1.5 0 1 1-3 0 1.5 1.5 0 0 1 3 0m-2.58 2.49a.68.68 0 1 1-1.35 0 .68.68 0 0 1 1.35 0m-35.64 0a.68.68 0 1 1-1.35 0 .68.68 0 0 1 1.35 0m3.05-2.49a1.5 1.5 0 1 1-3 0 1.5 1.5 0 0 1 3 0"/></g></g></svg>